<?xml version="1.0" encoding="UTF-8" standalone="no"?>
<!DOCTYPE svg PUBLIC "-//W3C//DTD SVG 1.1//EN"
 "http://www.w3.org/Graphics/SVG/1.1/DTD/svg11.dtd">
<!-- Generated by graphviz version 2.38.0 (20140413.2041)
 -->
<!-- Title: models_diagram Pages: 1 -->
<svg width="1367pt" height="585pt"
 viewBox="0.00 0.00 1366.69 585.00" xmlns="http://www.w3.org/2000/svg" xmlns:xlink="http://www.w3.org/1999/xlink">
<g id="graph0" class="graph" transform="scale(1 1) rotate(0) translate(4 581)">
<title>models_diagram</title>
<polygon fill="none" stroke="none" points="-4,4 -4,-581 1362.69,-581 1362.69,4 -4,4"/>
<!-- _diagram_info -->
<g id="node1" class="node"><title>_diagram_info</title>
<text text-anchor="start" x="8" y="-562.6" font-family="Times,serif" font-size="13.00">Models diagram</text>
<text text-anchor="start" x="8" y="-549.6" font-family="Times,serif" font-size="13.00">Date: Apr 09 2016 &#45; 17:53</text>
<text text-anchor="start" x="8" y="-536.6" font-family="Times,serif" font-size="13.00">Migration version: 20160407002041</text>
<text text-anchor="start" x="8" y="-523.6" font-family="Times,serif" font-size="13.00">Generated by RailRoady 1.4.2</text>
<text text-anchor="start" x="8" y="-510.6" font-family="Times,serif" font-size="13.00">http://railroady.prestonlee.com</text>
</g>
<!-- Ability -->
<g id="node2" class="node"><title>Ability</title>
<polygon fill="none" stroke="black" points="286.358,-468 231.018,-468 231.018,-432 286.358,-432 286.358,-468"/>
<text text-anchor="middle" x="258.688" y="-445.8" font-family="Times,serif" font-size="14.00">Ability</text>
</g>
<!-- Artefact -->
<g id="node3" class="node"><title>Artefact</title>
<ellipse fill="none" stroke="black" cx="343.688" cy="-450" rx="39.1454" ry="18"/>
<text text-anchor="middle" x="343.688" y="-445.8" font-family="Times,serif" font-size="14.00">Artefact</text>
</g>
<!-- Calendar -->
<g id="node4" class="node"><title>Calendar</title>
<ellipse fill="none" stroke="black" cx="863.688" cy="-378" rx="42.0524" ry="18"/>
<text text-anchor="middle" x="863.688" y="-373.8" font-family="Times,serif" font-size="14.00">Calendar</text>
</g>
<!-- Event -->
<g id="node9" class="node"><title>Event</title>
<ellipse fill="none" stroke="black" cx="1058.69" cy="-234" rx="30.9706" ry="18"/>
<text text-anchor="middle" x="1058.69" y="-229.8" font-family="Times,serif" font-size="14.00">Event</text>
</g>
<!-- Calendar&#45;&gt;Event -->
<g id="edge3" class="edge"><title>Calendar&#45;&gt;Event</title>
<path fill="none" stroke="#7f9a0a" d="M872.551,-350.248C880.315,-330.58 893.402,-304.505 912.688,-288 943.19,-261.895 987.597,-248.228 1019.42,-241.361"/>
<polygon fill="#7f9a0a" stroke="#7f9a0a" points="872.46,-350.493 864.755,-358.296 870.716,-355.179 868.972,-359.865 868.972,-359.865 868.972,-359.865 870.716,-355.179 873.189,-361.435 872.46,-350.493 872.46,-350.493"/>
<polygon fill="#7f9a0a" stroke="#7f9a0a" points="1019.47,-241.35 1030.17,-243.773 1024.37,-240.356 1029.27,-239.363 1029.27,-239.363 1029.27,-239.363 1024.37,-240.356 1028.38,-234.953 1019.47,-241.35 1019.47,-241.35"/>
</g>
<!-- Chapter -->
<g id="node5" class="node"><title>Chapter</title>
<ellipse fill="none" stroke="black" cx="992.688" cy="-306" rx="38.2024" ry="18"/>
<text text-anchor="middle" x="992.688" y="-301.8" font-family="Times,serif" font-size="14.00">Chapter</text>
</g>
<!-- Character -->
<g id="node6" class="node"><title>Character</title>
<ellipse fill="none" stroke="black" cx="731.688" cy="-306" rx="44.4491" ry="18"/>
<text text-anchor="middle" x="731.688" y="-301.8" font-family="Times,serif" font-size="14.00">Character</text>
</g>
<!-- Membership -->
<g id="node11" class="node"><title>Membership</title>
<ellipse fill="none" stroke="black" cx="457.688" cy="-234" rx="54.6162" ry="18"/>
<text text-anchor="middle" x="457.688" y="-229.8" font-family="Times,serif" font-size="14.00">Membership</text>
</g>
<!-- Character&#45;&gt;Membership -->
<g id="edge8" class="edge"><title>Character&#45;&gt;Membership</title>
<path fill="none" stroke="#9ddb00" d="M686.984,-293.579C638.331,-281.15 560.646,-261.303 509.399,-248.211"/>
<ellipse fill="none" stroke="#9ddb00" cx="691.144" cy="-294.642" rx="4.00001" ry="4.00001"/>
<polygon fill="#9ddb00" stroke="#9ddb00" points="509.208,-248.162 500.633,-241.327 504.363,-246.924 499.519,-245.687 499.519,-245.687 499.519,-245.687 504.363,-246.924 498.405,-250.047 509.208,-248.162 509.208,-248.162"/>
</g>
<!-- Participation -->
<g id="node13" class="node"><title>Participation</title>
<ellipse fill="none" stroke="black" cx="742.688" cy="-162" rx="55.0922" ry="18"/>
<text text-anchor="middle" x="742.688" y="-157.8" font-family="Times,serif" font-size="14.00">Participation</text>
</g>
<!-- Character&#45;&gt;Participation -->
<g id="edge7" class="edge"><title>Character&#45;&gt;Participation</title>
<path fill="none" stroke="#d7dc48" d="M733.659,-279.558C735.604,-254.444 738.569,-216.164 740.566,-190.393"/>
<ellipse fill="none" stroke="#d7dc48" cx="733.324" cy="-283.883" rx="4" ry="4"/>
<polygon fill="#d7dc48" stroke="#d7dc48" points="740.584,-190.159 745.843,-180.537 740.97,-185.174 741.356,-180.189 741.356,-180.189 741.356,-180.189 740.97,-185.174 736.87,-179.842 740.584,-190.159 740.584,-190.159"/>
</g>
<!-- Relationship -->
<g id="node15" class="node"><title>Relationship</title>
<ellipse fill="none" stroke="black" cx="659.688" cy="-234" rx="54.6248" ry="18"/>
<text text-anchor="middle" x="659.688" y="-229.8" font-family="Times,serif" font-size="14.00">Relationship</text>
</g>
<!-- Character&#45;&gt;Relationship -->
<g id="edge6" class="edge"><title>Character&#45;&gt;Relationship</title>
<path fill="none" stroke="#f7b936" d="M708.15,-282.116C700.389,-274.571 691.746,-266.168 683.934,-258.572"/>
<polygon fill="#f7b936" stroke="#f7b936" points="708.18,-282.145 712.213,-292.342 711.765,-285.631 715.35,-289.116 715.35,-289.116 715.35,-289.116 711.765,-285.631 718.487,-285.889 708.18,-282.145 708.18,-282.145"/>
<polygon fill="#f7b936" stroke="#f7b936" points="683.631,-258.278 679.598,-248.081 680.046,-254.792 676.461,-251.307 676.461,-251.307 676.461,-251.307 680.046,-254.792 673.324,-254.533 683.631,-258.278 683.631,-258.278"/>
</g>
<!-- Comment -->
<g id="node7" class="node"><title>Comment</title>
<ellipse fill="none" stroke="black" cx="586.688" cy="-450" rx="44.9768" ry="18"/>
<text text-anchor="middle" x="586.688" y="-445.8" font-family="Times,serif" font-size="14.00">Comment</text>
</g>
<!-- Day -->
<g id="node8" class="node"><title>Day</title>
<ellipse fill="none" stroke="black" cx="1113.69" cy="-306" rx="27" ry="18"/>
<text text-anchor="middle" x="1113.69" y="-301.8" font-family="Times,serif" font-size="14.00">Day</text>
</g>
<!-- Day&#45;&gt;Event -->
<g id="edge11" class="edge"><title>Day&#45;&gt;Event</title>
<path fill="none" stroke="#06c2cb" d="M1096.8,-283.501C1090.61,-275.626 1083.58,-266.675 1077.25,-258.624"/>
<ellipse fill="none" stroke="#06c2cb" cx="1099.28" cy="-286.666" rx="4.00002" ry="4.00002"/>
<polygon fill="#06c2cb" stroke="#06c2cb" points="1077.16,-258.507 1074.52,-247.864 1074.07,-254.576 1070.98,-250.644 1070.98,-250.644 1070.98,-250.644 1074.07,-254.576 1067.44,-253.424 1077.16,-258.507 1077.16,-258.507"/>
</g>
<!-- Event&#45;&gt;Participation -->
<g id="edge13" class="edge"><title>Event&#45;&gt;Participation</title>
<path fill="none" stroke="#8cb397" d="M1022.54,-224.993C967.319,-212.76 861.579,-189.337 797.067,-175.046"/>
<ellipse fill="none" stroke="#8cb397" cx="1026.46" cy="-225.861" rx="4.00001" ry="4.00001"/>
<polygon fill="#8cb397" stroke="#8cb397" points="796.845,-174.997 788.055,-168.441 791.963,-173.915 787.081,-172.834 787.081,-172.834 787.081,-172.834 791.963,-173.915 786.108,-177.228 796.845,-174.997 796.845,-174.997"/>
</g>
<!-- Scene -->
<g id="node16" class="node"><title>Scene</title>
<ellipse fill="none" stroke="black" cx="1185.69" cy="-162" rx="31.4462" ry="18"/>
<text text-anchor="middle" x="1185.69" y="-157.8" font-family="Times,serif" font-size="14.00">Scene</text>
</g>
<!-- Event&#45;&gt;Scene -->
<g id="edge14" class="edge"><title>Event&#45;&gt;Scene</title>
<path fill="none" stroke="#7973a8" d="M1089.21,-216.176C1109.01,-205.262 1134.73,-191.084 1154.64,-180.114"/>
<polygon fill="#7973a8" stroke="#7973a8" points="1088.99,-216.298 1078.06,-217.184 1084.61,-218.712 1080.23,-221.125 1080.23,-221.125 1080.23,-221.125 1084.61,-218.712 1082.4,-225.066 1088.99,-216.298 1088.99,-216.298"/>
<polygon fill="#7973a8" stroke="#7973a8" points="1154.85,-179.995 1165.78,-179.109 1159.23,-177.582 1163.61,-175.168 1163.61,-175.168 1163.61,-175.168 1159.23,-177.582 1161.44,-171.227 1154.85,-179.995 1154.85,-179.995"/>
</g>
<!-- Experience -->
<g id="node10" class="node"><title>Experience</title>
<ellipse fill="none" stroke="black" cx="775.688" cy="-450" rx="49.7533" ry="18"/>
<text text-anchor="middle" x="775.688" y="-445.8" font-family="Times,serif" font-size="14.00">Experience</text>
</g>
<!-- Page -->
<g id="node12" class="node"><title>Page</title>
<ellipse fill="none" stroke="black" cx="908.688" cy="-450" rx="27.0958" ry="18"/>
<text text-anchor="middle" x="908.688" y="-445.8" font-family="Times,serif" font-size="14.00">Page</text>
</g>
<!-- Place -->
<g id="node14" class="node"><title>Place</title>
<ellipse fill="none" stroke="black" cx="1187.69" cy="-306" rx="29.0172" ry="18"/>
<text text-anchor="middle" x="1187.69" y="-301.8" font-family="Times,serif" font-size="14.00">Place</text>
</g>
<!-- Place&#45;&gt;Event -->
<g id="edge20" class="edge"><title>Place&#45;&gt;Event</title>
<path fill="none" stroke="#e0c78b" d="M1159.35,-289.621C1138.65,-278.389 1110.61,-263.175 1089.38,-251.656"/>
<ellipse fill="none" stroke="#e0c78b" cx="1162.87" cy="-291.533" rx="4.00002" ry="4.00002"/>
<polygon fill="#e0c78b" stroke="#e0c78b" points="1089.24,-251.58 1082.6,-242.855 1084.85,-249.195 1080.45,-246.81 1080.45,-246.81 1080.45,-246.81 1084.85,-249.195 1078.31,-250.765 1089.24,-251.58 1089.24,-251.58"/>
</g>
<!-- SceneOrder -->
<g id="node17" class="node"><title>SceneOrder</title>
<ellipse fill="none" stroke="black" cx="1244.69" cy="-18" rx="51.6916" ry="18"/>
<text text-anchor="middle" x="1244.69" y="-13.8" font-family="Times,serif" font-size="14.00">SceneOrder</text>
</g>
<!-- Scene&#45;&gt;SceneOrder -->
<g id="edge23" class="edge"><title>Scene&#45;&gt;SceneOrder</title>
<path fill="none" stroke="#e9821d" d="M1188.99,-135.567C1192,-117.284 1197.42,-92.367 1206.69,-72 1211.19,-62.1062 1217.66,-52.1796 1223.98,-43.6362"/>
<ellipse fill="none" stroke="#e9821d" cx="1188.31" cy="-140.007" rx="4.00001" ry="4.00001"/>
<polygon fill="#e9821d" stroke="#e9821d" points="1224.07,-43.5199 1233.75,-38.3572 1227.13,-39.5631 1230.19,-35.6062 1230.19,-35.6062 1230.19,-35.6062 1227.13,-39.5631 1226.63,-32.8552 1224.07,-43.5199 1224.07,-43.5199"/>
</g>
<!-- Story -->
<g id="node19" class="node"><title>Story</title>
<ellipse fill="none" stroke="black" cx="1244.69" cy="-90" rx="29.0429" ry="18"/>
<text text-anchor="middle" x="1244.69" y="-85.8" font-family="Times,serif" font-size="14.00">Story</text>
</g>
<!-- Scene&#45;&gt;Story -->
<g id="edge24" class="edge"><title>Scene&#45;&gt;Story</title>
<path fill="none" stroke="#858856" d="M1205.37,-137.644C1211.72,-130.116 1218.75,-121.776 1225.09,-114.255"/>
<polygon fill="#858856" stroke="#858856" points="1205.23,-137.818 1195.34,-142.565 1202,-141.642 1198.78,-145.465 1198.78,-145.465 1198.78,-145.465 1202,-141.642 1202.22,-148.365 1205.23,-137.818 1205.23,-137.818"/>
<polygon fill="#858856" stroke="#858856" points="1225.19,-114.138 1235.07,-109.392 1228.41,-110.315 1231.63,-106.492 1231.63,-106.492 1231.63,-106.492 1228.41,-110.315 1228.19,-103.592 1225.19,-114.138 1225.19,-114.138"/>
</g>
<!-- Society -->
<g id="node18" class="node"><title>Society</title>
<ellipse fill="none" stroke="black" cx="475.688" cy="-378" rx="36.7663" ry="18"/>
<text text-anchor="middle" x="475.688" y="-373.8" font-family="Times,serif" font-size="14.00">Society</text>
</g>
<!-- Society&#45;&gt;Membership -->
<g id="edge27" class="edge"><title>Society&#45;&gt;Membership</title>
<path fill="none" stroke="#365329" d="M472.51,-351.929C469.329,-326.837 464.449,-288.338 461.166,-262.441"/>
<ellipse fill="none" stroke="#365329" cx="473.013" cy="-355.903" rx="4.00001" ry="4.00001"/>
<polygon fill="#365329" stroke="#365329" points="461.124,-262.11 464.331,-251.623 460.495,-257.15 459.867,-252.189 459.867,-252.189 459.867,-252.189 460.495,-257.15 455.402,-252.755 461.124,-262.11 461.124,-262.11"/>
</g>
<!-- Story&#45;&gt;SceneOrder -->
<g id="edge29" class="edge"><title>Story&#45;&gt;SceneOrder</title>
<path fill="none" stroke="#c1277c" d="M1244.69,-63.6398C1244.69,-58.0629 1244.69,-52.1319 1244.69,-46.4761"/>
<ellipse fill="none" stroke="#c1277c" cx="1244.69" cy="-67.6966" rx="4" ry="4"/>
<polygon fill="#c1277c" stroke="#c1277c" points="1244.69,-46.1043 1249.19,-36.1043 1244.69,-41.1043 1244.69,-36.1043 1244.69,-36.1043 1244.69,-36.1043 1244.69,-41.1043 1240.19,-36.1044 1244.69,-46.1043 1244.69,-46.1043"/>
</g>
<!-- Univers -->
<g id="node20" class="node"><title>Univers</title>
<ellipse fill="none" stroke="black" cx="1075.69" cy="-378" rx="38.211" ry="18"/>
<text text-anchor="middle" x="1075.69" y="-373.8" font-family="Times,serif" font-size="14.00">Univers</text>
</g>
<!-- Univers&#45;&gt;Chapter -->
<g id="edge35" class="edge"><title>Univers&#45;&gt;Chapter</title>
<path fill="none" stroke="#6086a3" d="M1051.52,-356.619C1041.12,-347.845 1028.94,-337.575 1018.37,-328.663"/>
<ellipse fill="none" stroke="#6086a3" cx="1054.62" cy="-359.232" rx="4.00002" ry="4.00002"/>
<polygon fill="#6086a3" stroke="#6086a3" points="1018.31,-328.606 1013.56,-318.719 1014.48,-325.383 1010.66,-322.159 1010.66,-322.159 1010.66,-322.159 1014.48,-325.383 1007.76,-325.599 1018.31,-328.606 1018.31,-328.606"/>
</g>
<!-- Univers&#45;&gt;Character -->
<g id="edge33" class="edge"><title>Univers&#45;&gt;Character</title>
<path fill="none" stroke="#cf2f6e" d="M1033.57,-368.429C969.588,-355.41 848.218,-330.713 780.488,-316.93"/>
<ellipse fill="none" stroke="#cf2f6e" cx="1037.53" cy="-369.235" rx="4.00001" ry="4.00001"/>
<polygon fill="#cf2f6e" stroke="#cf2f6e" points="780.295,-316.891 771.393,-310.487 775.395,-315.894 770.496,-314.897 770.496,-314.897 770.496,-314.897 775.395,-315.894 769.599,-319.307 780.295,-316.891 780.295,-316.891"/>
</g>
<!-- Univers&#45;&gt;Day -->
<g id="edge36" class="edge"><title>Univers&#45;&gt;Day</title>
<path fill="none" stroke="#0b507d" d="M1088.59,-353.238C1092.24,-346.506 1096.23,-339.154 1099.94,-332.333"/>
<ellipse fill="none" stroke="#0b507d" cx="1086.6" cy="-356.896" rx="4.00002" ry="4.00002"/>
<polygon fill="#0b507d" stroke="#0b507d" points="1099.98,-332.258 1108.7,-325.617 1102.36,-327.864 1104.75,-323.47 1104.75,-323.47 1104.75,-323.47 1102.36,-327.864 1100.79,-321.323 1099.98,-332.258 1099.98,-332.258"/>
</g>
<!-- Univers&#45;&gt;Event -->
<g id="edge32" class="edge"><title>Univers&#45;&gt;Event</title>
<path fill="none" stroke="#3f83c0" d="M1072.64,-351.558C1069.64,-326.444 1065.05,-288.164 1061.97,-262.393"/>
<ellipse fill="none" stroke="#3f83c0" cx="1073.16" cy="-355.9" rx="4.00001" ry="4.00001"/>
<polygon fill="#3f83c0" stroke="#3f83c0" points="1061.93,-262.118 1065.21,-251.654 1061.34,-257.154 1060.75,-252.189 1060.75,-252.189 1060.75,-252.189 1061.34,-257.154 1056.28,-252.724 1061.93,-262.118 1061.93,-262.118"/>
</g>
<!-- Univers&#45;&gt;Place -->
<g id="edge34" class="edge"><title>Univers&#45;&gt;Place</title>
<path fill="none" stroke="#a7afb8" d="M1104.83,-358.787C1121.56,-348.332 1142.48,-335.256 1159.11,-324.86"/>
<ellipse fill="none" stroke="#a7afb8" cx="1101.21" cy="-361.05" rx="4.00002" ry="4.00002"/>
<polygon fill="#a7afb8" stroke="#a7afb8" points="1159.38,-324.694 1170.24,-323.21 1163.62,-322.044 1167.86,-319.394 1167.86,-319.394 1167.86,-319.394 1163.62,-322.044 1165.47,-315.578 1159.38,-324.694 1159.38,-324.694"/>
</g>
<!-- Univers&#45;&gt;Story -->
<g id="edge31" class="edge"><title>Univers&#45;&gt;Story</title>
<path fill="none" stroke="#3db0d9" d="M1121.48,-373.729C1155.87,-368.661 1201.12,-355.907 1225.69,-324 1272.55,-263.144 1260.51,-164.923 1251.04,-117.844"/>
<ellipse fill="none" stroke="#3db0d9" cx="1117.4" cy="-374.275" rx="4.00001" ry="4.00001"/>
<polygon fill="#3db0d9" stroke="#3db0d9" points="1250.99,-117.596 1253.31,-106.878 1249.95,-112.706 1248.91,-107.816 1248.91,-107.816 1248.91,-107.816 1249.95,-112.706 1244.51,-108.753 1250.99,-117.596 1250.99,-117.596"/>
</g>
<!-- User -->
<g id="node21" class="node"><title>User</title>
<ellipse fill="none" stroke="black" cx="1056.69" cy="-450" rx="27" ry="18"/>
<text text-anchor="middle" x="1056.69" y="-445.8" font-family="Times,serif" font-size="14.00">User</text>
</g>
<!-- User&#45;&gt;Univers -->
<g id="edge38" class="edge"><title>User&#45;&gt;Univers</title>
<path fill="none" stroke="#b9ab8f" d="M1063.4,-424.267C1065.01,-418.34 1066.74,-411.981 1068.37,-405.959"/>
<ellipse fill="none" stroke="#b9ab8f" cx="1062.33" cy="-428.195" rx="4.00001" ry="4.00001"/>
<polygon fill="#b9ab8f" stroke="#b9ab8f" points="1068.38,-405.926 1075.34,-397.454 1069.69,-401.101 1071,-396.275 1071,-396.275 1071,-396.275 1069.69,-401.101 1066.66,-395.096 1068.38,-405.926 1068.38,-405.926"/>
</g>
<!-- Object -->
<g id="node22" class="node"><title>Object</title>
<ellipse fill="none" stroke="black" cx="258.688" cy="-540.5" rx="33.8596" ry="18"/>
<text text-anchor="middle" x="258.688" y="-536.3" font-family="Times,serif" font-size="14.00">Object</text>
</g>
<!-- Object&#45;&gt;Ability -->
<g id="edge1" class="edge"><title>Object&#45;&gt;Ability</title>
<path fill="none" stroke="black" d="M258.688,-522.436C258.688,-506.765 258.688,-483.666 258.688,-468.011"/>
</g>
<!-- ActiveRecord::Base -->
<g id="node23" class="node"><title>ActiveRecord::Base</title>
<ellipse fill="none" stroke="black" cx="908.688" cy="-540.5" rx="81.1422" ry="18"/>
<text text-anchor="middle" x="908.688" y="-536.3" font-family="Times,serif" font-size="14.00">ActiveRecord::Base</text>
</g>
<!-- ActiveRecord::Base&#45;&gt;Artefact -->
<g id="edge2" class="edge"><title>ActiveRecord::Base&#45;&gt;Artefact</title>
<path fill="none" stroke="black" d="M834.198,-533.142C733.889,-523.663 550.246,-503.076 396.688,-468 389.151,-466.279 381.149,-463.973 373.709,-461.616"/>
</g>
<!-- ActiveRecord::Base&#45;&gt;Calendar -->
<g id="edge4" class="edge"><title>ActiveRecord::Base&#45;&gt;Calendar</title>
<path fill="none" stroke="black" d="M897.945,-522.604C889.576,-508.559 878.443,-487.747 872.688,-468 865.604,-443.697 863.892,-414.261 863.584,-396.081"/>
</g>
<!-- ActiveRecord::Base&#45;&gt;Chapter -->
<g id="edge5" class="edge"><title>ActiveRecord::Base&#45;&gt;Chapter</title>
<path fill="none" stroke="black" d="M931.137,-523.11C947.074,-510.103 967.398,-490.42 977.688,-468 999.818,-419.779 997.447,-355.005 994.691,-324.402"/>
</g>
<!-- ActiveRecord::Base&#45;&gt;Character -->
<g id="edge9" class="edge"><title>ActiveRecord::Base&#45;&gt;Character</title>
<path fill="none" stroke="black" d="M835.559,-532.473C793.305,-524.23 743.374,-506.414 716.688,-468 685.937,-423.734 709.75,-355.305 723.578,-323.856"/>
</g>
<!-- ActiveRecord::Base&#45;&gt;Comment -->
<g id="edge10" class="edge"><title>ActiveRecord::Base&#45;&gt;Comment</title>
<path fill="none" stroke="black" d="M858.696,-526.15C805.744,-511.952 719.73,-488.731 645.688,-468 637.989,-465.844 629.737,-463.493 621.917,-461.245"/>
</g>
<!-- ActiveRecord::Base&#45;&gt;Day -->
<g id="edge12" class="edge"><title>ActiveRecord::Base&#45;&gt;Day</title>
<path fill="none" stroke="black" d="M981.26,-532.193C1025.21,-523.862 1078.77,-506.053 1110.69,-468 1145.36,-426.659 1129.46,-356.144 1119.53,-323.941"/>
</g>
<!-- ActiveRecord::Base&#45;&gt;Event -->
<g id="edge15" class="edge"><title>ActiveRecord::Base&#45;&gt;Event</title>
<path fill="none" stroke="black" d="M920.111,-522.455C928.75,-508.491 939.911,-487.864 944.688,-468 963.393,-390.216 902.591,-355.401 945.688,-288 964.073,-259.247 1002.61,-245.813 1029.54,-239.731"/>
</g>
<!-- ActiveRecord::Base&#45;&gt;Experience -->
<g id="edge16" class="edge"><title>ActiveRecord::Base&#45;&gt;Experience</title>
<path fill="none" stroke="black" d="M884.293,-523.268C859.846,-507 822.501,-482.15 798.594,-466.242"/>
</g>
<!-- ActiveRecord::Base&#45;&gt;Membership -->
<g id="edge17" class="edge"><title>ActiveRecord::Base&#45;&gt;Membership</title>
<path fill="none" stroke="black" d="M832.221,-534.224C724.281,-525.551 533.983,-505.394 476.688,-468 444.686,-447.114 440.585,-432.628 429.688,-396 414.479,-344.877 436.708,-282.013 449.591,-252.223"/>
</g>
<!-- ActiveRecord::Base&#45;&gt;Page -->
<g id="edge18" class="edge"><title>ActiveRecord::Base&#45;&gt;Page</title>
<path fill="none" stroke="black" d="M908.688,-522.436C908.688,-506.765 908.688,-483.666 908.688,-468.011"/>
</g>
<!-- ActiveRecord::Base&#45;&gt;Participation -->
<g id="edge19" class="edge"><title>ActiveRecord::Base&#45;&gt;Participation</title>
<path fill="none" stroke="black" d="M829.867,-535.953C730.928,-529.657 569.656,-512.66 532.688,-468 520.087,-452.778 539.056,-276.271 595.688,-216 620.766,-189.31 660.274,-176.03 692.019,-169.44"/>
</g>
<!-- ActiveRecord::Base&#45;&gt;Place -->
<g id="edge21" class="edge"><title>ActiveRecord::Base&#45;&gt;Place</title>
<path fill="none" stroke="black" d="M983.133,-533.091C1031.82,-525.161 1093.59,-507.46 1133.69,-468 1174.24,-428.088 1184.34,-356.847 1186.85,-324.201"/>
</g>
<!-- ActiveRecord::Base&#45;&gt;Relationship -->
<g id="edge22" class="edge"><title>ActiveRecord::Base&#45;&gt;Relationship</title>
<path fill="none" stroke="black" d="M834.744,-533.004C789.129,-525.007 733.137,-507.264 699.688,-468 645.391,-404.264 652.229,-294.15 657.248,-252.046"/>
</g>
<!-- ActiveRecord::Base&#45;&gt;Scene -->
<g id="edge25" class="edge"><title>ActiveRecord::Base&#45;&gt;Scene</title>
<path fill="none" stroke="black" d="M989.84,-539.001C1099.84,-533.553 1282.69,-505.476 1282.69,-379 1282.69,-379 1282.69,-379 1282.69,-305 1282.69,-249.767 1232.03,-200.206 1203.93,-176.964"/>
</g>
<!-- ActiveRecord::Base&#45;&gt;SceneOrder -->
<g id="edge26" class="edge"><title>ActiveRecord::Base&#45;&gt;SceneOrder</title>
<path fill="none" stroke="black" d="M983.109,-533.159C1082.4,-523.503 1251.64,-502.501 1302.69,-468 1341.41,-441.83 1358.69,-425.734 1358.69,-379 1358.69,-379 1358.69,-379 1358.69,-161 1358.69,-104.094 1302.33,-57.0095 1268.86,-34.0684"/>
</g>
<!-- ActiveRecord::Base&#45;&gt;Society -->
<g id="edge28" class="edge"><title>ActiveRecord::Base&#45;&gt;Society</title>
<path fill="none" stroke="black" d="M830.224,-535.625C725.28,-528.835 546.921,-511.148 499.688,-468 479.601,-449.651 475.609,-416.425 475.193,-396.171"/>
</g>
<!-- ActiveRecord::Base&#45;&gt;Story -->
<g id="edge30" class="edge"><title>ActiveRecord::Base&#45;&gt;Story</title>
<path fill="none" stroke="black" d="M981.391,-532.263C1073.13,-521.931 1224.42,-500.525 1269.69,-468 1306.71,-441.4 1320.69,-424.59 1320.69,-379 1320.69,-379 1320.69,-379 1320.69,-233 1320.69,-181.271 1281,-130.15 1258.98,-105.772"/>
</g>
<!-- ActiveRecord::Base&#45;&gt;Univers -->
<g id="edge37" class="edge"><title>ActiveRecord::Base&#45;&gt;Univers</title>
<path fill="none" stroke="black" d="M979.32,-531.508C1019.75,-522.906 1067.33,-505.052 1092.69,-468 1107.61,-446.19 1095.63,-414.676 1085.62,-395.588"/>
</g>
<!-- ActiveRecord::Base&#45;&gt;User -->
<g id="edge39" class="edge"><title>ActiveRecord::Base&#45;&gt;User</title>
<path fill="none" stroke="black" d="M935.489,-523.473C964.811,-505.94 1011.1,-478.26 1037.17,-462.672"/>
</g>
</g>
</svg>
