<?xml version="1.0" encoding="UTF-8" standalone="no"?>
<!DOCTYPE svg PUBLIC "-//W3C//DTD SVG 1.1//EN"
 "http://www.w3.org/Graphics/SVG/1.1/DTD/svg11.dtd">
<!-- Generated by graphviz version 2.38.0 (20140413.2041)
 -->
<!-- Title: models_diagram Pages: 1 -->
<svg width="1851pt" height="1418pt"
 viewBox="0.00 0.00 1851.02 1418.00" xmlns="http://www.w3.org/2000/svg" xmlns:xlink="http://www.w3.org/1999/xlink">
<g id="graph0" class="graph" transform="scale(1 1) rotate(0) translate(4 1414)">
<title>models_diagram</title>
<polygon fill="none" stroke="none" points="-4,4 -4,-1414 1847.02,-1414 1847.02,4 -4,4"/>
<!-- _diagram_info -->
<g id="node1" class="node"><title>_diagram_info</title>
<text text-anchor="start" x="8" y="-1395.6" font-family="Times,serif" font-size="13.00">Models diagram</text>
<text text-anchor="start" x="8" y="-1382.6" font-family="Times,serif" font-size="13.00">Date: Apr 09 2016 &#45; 17:52</text>
<text text-anchor="start" x="8" y="-1369.6" font-family="Times,serif" font-size="13.00">Migration version: 20160407002041</text>
<text text-anchor="start" x="8" y="-1356.6" font-family="Times,serif" font-size="13.00">Generated by RailRoady 1.4.2</text>
<text text-anchor="start" x="8" y="-1343.6" font-family="Times,serif" font-size="13.00">http://railroady.prestonlee.com</text>
</g>
<!-- Ability -->
<g id="node2" class="node"><title>Ability</title>
<polygon fill="none" stroke="black" points="230.853,-1165.5 230.853,-1209.5 286.522,-1209.5 286.522,-1165.5 230.853,-1165.5"/>
<text text-anchor="middle" x="258.688" y="-1194.3" font-family="Times,serif" font-size="14.00">Ability</text>
<polyline fill="none" stroke="black" points="230.853,-1187.5 286.522,-1187.5 "/>
<text text-anchor="middle" x="258.688" y="-1172.3" font-family="Times,serif" font-size="14.00"> </text>
</g>
<!-- Artefact -->
<g id="node3" class="node"><title>Artefact</title>
<path fill="none" stroke="black" d="M316.182,-1144.5C316.182,-1144.5 425.193,-1144.5 425.193,-1144.5 431.193,-1144.5 437.193,-1150.5 437.193,-1156.5 437.193,-1156.5 437.193,-1218.5 437.193,-1218.5 437.193,-1224.5 431.193,-1230.5 425.193,-1230.5 425.193,-1230.5 316.182,-1230.5 316.182,-1230.5 310.182,-1230.5 304.182,-1224.5 304.182,-1218.5 304.182,-1218.5 304.182,-1156.5 304.182,-1156.5 304.182,-1150.5 310.182,-1144.5 316.182,-1144.5"/>
<text text-anchor="middle" x="370.688" y="-1215.3" font-family="Times,serif" font-size="14.00">Artefact</text>
<polyline fill="none" stroke="black" points="304.182,-1208.5 437.193,-1208.5 "/>
<text text-anchor="start" x="312.182" y="-1193.3" font-family="Times,serif" font-size="14.00">id :INTEGER</text>
<text text-anchor="start" x="312.182" y="-1179.3" font-family="Times,serif" font-size="14.00">name :varchar(255)</text>
<text text-anchor="start" x="312.182" y="-1165.3" font-family="Times,serif" font-size="14.00">created_at :datetime</text>
<text text-anchor="start" x="312.182" y="-1151.3" font-family="Times,serif" font-size="14.00">updated_at :datetime</text>
</g>
<!-- Calendar -->
<g id="node4" class="node"><title>Calendar</title>
<path fill="none" stroke="black" d="M995.182,-937.5C995.182,-937.5 1104.19,-937.5 1104.19,-937.5 1110.19,-937.5 1116.19,-943.5 1116.19,-949.5 1116.19,-949.5 1116.19,-1011.5 1116.19,-1011.5 1116.19,-1017.5 1110.19,-1023.5 1104.19,-1023.5 1104.19,-1023.5 995.182,-1023.5 995.182,-1023.5 989.182,-1023.5 983.182,-1017.5 983.182,-1011.5 983.182,-1011.5 983.182,-949.5 983.182,-949.5 983.182,-943.5 989.182,-937.5 995.182,-937.5"/>
<text text-anchor="middle" x="1049.69" y="-1008.3" font-family="Times,serif" font-size="14.00">Calendar</text>
<polyline fill="none" stroke="black" points="983.182,-1001.5 1116.19,-1001.5 "/>
<text text-anchor="start" x="991.182" y="-986.3" font-family="Times,serif" font-size="14.00">id :INTEGER</text>
<text text-anchor="start" x="991.182" y="-972.3" font-family="Times,serif" font-size="14.00">date :date</text>
<text text-anchor="start" x="991.182" y="-958.3" font-family="Times,serif" font-size="14.00">created_at :datetime</text>
<text text-anchor="start" x="991.182" y="-944.3" font-family="Times,serif" font-size="14.00">updated_at :datetime</text>
</g>
<!-- Event -->
<g id="node9" class="node"><title>Event</title>
<path fill="none" stroke="black" d="M1271.18,-439.5C1271.18,-439.5 1380.19,-439.5 1380.19,-439.5 1386.19,-439.5 1392.19,-445.5 1392.19,-451.5 1392.19,-451.5 1392.19,-555.5 1392.19,-555.5 1392.19,-561.5 1386.19,-567.5 1380.19,-567.5 1380.19,-567.5 1271.18,-567.5 1271.18,-567.5 1265.18,-567.5 1259.18,-561.5 1259.18,-555.5 1259.18,-555.5 1259.18,-451.5 1259.18,-451.5 1259.18,-445.5 1265.18,-439.5 1271.18,-439.5"/>
<text text-anchor="middle" x="1325.69" y="-552.3" font-family="Times,serif" font-size="14.00">Event</text>
<polyline fill="none" stroke="black" points="1259.18,-545.5 1392.19,-545.5 "/>
<text text-anchor="start" x="1267.18" y="-530.3" font-family="Times,serif" font-size="14.00">id :INTEGER</text>
<text text-anchor="start" x="1267.18" y="-516.3" font-family="Times,serif" font-size="14.00">name :varchar(255)</text>
<text text-anchor="start" x="1267.18" y="-502.3" font-family="Times,serif" font-size="14.00">created_at :datetime</text>
<text text-anchor="start" x="1267.18" y="-488.3" font-family="Times,serif" font-size="14.00">updated_at :datetime</text>
<text text-anchor="start" x="1267.18" y="-474.3" font-family="Times,serif" font-size="14.00">univers_id :integer</text>
<text text-anchor="start" x="1267.18" y="-460.3" font-family="Times,serif" font-size="14.00">place_id :integer</text>
<text text-anchor="start" x="1267.18" y="-446.3" font-family="Times,serif" font-size="14.00">day_id :integer</text>
</g>
<!-- Calendar&#45;&gt;Event -->
<g id="edge3" class="edge"><title>Calendar&#45;&gt;Event</title>
<path fill="none" stroke="#0e0019" d="M1045.85,-927.349C1042.86,-848.985 1048.33,-699.851 1121.69,-604 1153.03,-563.039 1205.66,-537.953 1249.61,-523.216"/>
<polygon fill="#0e0019" stroke="#0e0019" points="1045.85,-927.475 1041.8,-937.664 1046.07,-932.47 1046.29,-937.465 1046.29,-937.465 1046.29,-937.465 1046.07,-932.47 1050.79,-937.266 1045.85,-927.475 1045.85,-927.475"/>
<polygon fill="#0e0019" stroke="#0e0019" points="1249.61,-523.214 1260.51,-524.419 1254.37,-521.675 1259.13,-520.137 1259.13,-520.137 1259.13,-520.137 1254.37,-521.675 1257.74,-515.855 1249.61,-523.214 1249.61,-523.214"/>
</g>
<!-- Chapter -->
<g id="node5" class="node"><title>Chapter</title>
<path fill="none" stroke="black" d="M1176.18,-695.5C1176.18,-695.5 1285.19,-695.5 1285.19,-695.5 1291.19,-695.5 1297.19,-701.5 1297.19,-707.5 1297.19,-707.5 1297.19,-783.5 1297.19,-783.5 1297.19,-789.5 1291.19,-795.5 1285.19,-795.5 1285.19,-795.5 1176.18,-795.5 1176.18,-795.5 1170.18,-795.5 1164.18,-789.5 1164.18,-783.5 1164.18,-783.5 1164.18,-707.5 1164.18,-707.5 1164.18,-701.5 1170.18,-695.5 1176.18,-695.5"/>
<text text-anchor="middle" x="1230.69" y="-780.3" font-family="Times,serif" font-size="14.00">Chapter</text>
<polyline fill="none" stroke="black" points="1164.18,-773.5 1297.19,-773.5 "/>
<text text-anchor="start" x="1172.18" y="-758.3" font-family="Times,serif" font-size="14.00">id :INTEGER</text>
<text text-anchor="start" x="1172.18" y="-744.3" font-family="Times,serif" font-size="14.00">name :varchar(255)</text>
<text text-anchor="start" x="1172.18" y="-730.3" font-family="Times,serif" font-size="14.00">created_at :datetime</text>
<text text-anchor="start" x="1172.18" y="-716.3" font-family="Times,serif" font-size="14.00">updated_at :datetime</text>
<text text-anchor="start" x="1172.18" y="-702.3" font-family="Times,serif" font-size="14.00">univers_id :integer</text>
</g>
<!-- Character -->
<g id="node6" class="node"><title>Character</title>
<path fill="none" stroke="black" d="M829.141,-604.5C829.141,-604.5 1004.23,-604.5 1004.23,-604.5 1010.23,-604.5 1016.23,-610.5 1016.23,-616.5 1016.23,-616.5 1016.23,-874.5 1016.23,-874.5 1016.23,-880.5 1010.23,-886.5 1004.23,-886.5 1004.23,-886.5 829.141,-886.5 829.141,-886.5 823.141,-886.5 817.141,-880.5 817.141,-874.5 817.141,-874.5 817.141,-616.5 817.141,-616.5 817.141,-610.5 823.141,-604.5 829.141,-604.5"/>
<text text-anchor="middle" x="916.688" y="-871.3" font-family="Times,serif" font-size="14.00">Character</text>
<polyline fill="none" stroke="black" points="817.141,-864.5 1016.23,-864.5 "/>
<text text-anchor="start" x="825.141" y="-849.3" font-family="Times,serif" font-size="14.00">id :INTEGER</text>
<text text-anchor="start" x="825.141" y="-835.3" font-family="Times,serif" font-size="14.00">first_name :varchar(255)</text>
<text text-anchor="start" x="825.141" y="-821.3" font-family="Times,serif" font-size="14.00">last_name :varchar(255)</text>
<text text-anchor="start" x="825.141" y="-807.3" font-family="Times,serif" font-size="14.00">drive :text</text>
<text text-anchor="start" x="825.141" y="-793.3" font-family="Times,serif" font-size="14.00">wound :text</text>
<text text-anchor="start" x="825.141" y="-779.3" font-family="Times,serif" font-size="14.00">eyes_color :varchar(255)</text>
<text text-anchor="start" x="825.141" y="-765.3" font-family="Times,serif" font-size="14.00">hair_color :varchar(255)</text>
<text text-anchor="start" x="825.141" y="-751.3" font-family="Times,serif" font-size="14.00">height :integer</text>
<text text-anchor="start" x="825.141" y="-737.3" font-family="Times,serif" font-size="14.00">weight :integer</text>
<text text-anchor="start" x="825.141" y="-723.3" font-family="Times,serif" font-size="14.00">race :varchar(255)</text>
<text text-anchor="start" x="825.141" y="-709.3" font-family="Times,serif" font-size="14.00">sex :varchar(255)</text>
<text text-anchor="start" x="825.141" y="-695.3" font-family="Times,serif" font-size="14.00">genetic_modification :boolean</text>
<text text-anchor="start" x="825.141" y="-681.3" font-family="Times,serif" font-size="14.00">social_class :varchar(255)</text>
<text text-anchor="start" x="825.141" y="-667.3" font-family="Times,serif" font-size="14.00">sexual_orientation :varchar(255)</text>
<text text-anchor="start" x="825.141" y="-653.3" font-family="Times,serif" font-size="14.00">genre :varchar(255)</text>
<text text-anchor="start" x="825.141" y="-639.3" font-family="Times,serif" font-size="14.00">created_at :datetime</text>
<text text-anchor="start" x="825.141" y="-625.3" font-family="Times,serif" font-size="14.00">updated_at :datetime</text>
<text text-anchor="start" x="825.141" y="-611.3" font-family="Times,serif" font-size="14.00">univers_id :integer</text>
</g>
<!-- Membership -->
<g id="node11" class="node"><title>Membership</title>
<path fill="none" stroke="black" d="M506.182,-453.5C506.182,-453.5 615.193,-453.5 615.193,-453.5 621.193,-453.5 627.193,-459.5 627.193,-465.5 627.193,-465.5 627.193,-541.5 627.193,-541.5 627.193,-547.5 621.193,-553.5 615.193,-553.5 615.193,-553.5 506.182,-553.5 506.182,-553.5 500.182,-553.5 494.182,-547.5 494.182,-541.5 494.182,-541.5 494.182,-465.5 494.182,-465.5 494.182,-459.5 500.182,-453.5 506.182,-453.5"/>
<text text-anchor="middle" x="560.688" y="-538.3" font-family="Times,serif" font-size="14.00">Membership</text>
<polyline fill="none" stroke="black" points="494.182,-531.5 627.193,-531.5 "/>
<text text-anchor="start" x="502.182" y="-516.3" font-family="Times,serif" font-size="14.00">id :INTEGER</text>
<text text-anchor="start" x="502.182" y="-502.3" font-family="Times,serif" font-size="14.00">character_id :integer</text>
<text text-anchor="start" x="502.182" y="-488.3" font-family="Times,serif" font-size="14.00">society_id :integer</text>
<text text-anchor="start" x="502.182" y="-474.3" font-family="Times,serif" font-size="14.00">created_at :datetime</text>
<text text-anchor="start" x="502.182" y="-460.3" font-family="Times,serif" font-size="14.00">updated_at :datetime</text>
</g>
<!-- Character&#45;&gt;Membership -->
<g id="edge8" class="edge"><title>Character&#45;&gt;Membership</title>
<path fill="none" stroke="#c3ead4" d="M810.244,-672.74C754.013,-634.831 686.352,-589.217 635.675,-555.054"/>
<ellipse fill="none" stroke="#c3ead4" cx="813.732" cy="-675.091" rx="4.00002" ry="4.00002"/>
<polygon fill="#c3ead4" stroke="#c3ead4" points="635.667,-555.048 629.89,-545.726 631.521,-552.253 627.375,-549.458 627.375,-549.458 627.375,-549.458 631.521,-552.253 624.859,-553.189 635.667,-555.048 635.667,-555.048"/>
</g>
<!-- Participation -->
<g id="node13" class="node"><title>Participation</title>
<path fill="none" stroke="black" d="M858.303,-288.5C858.303,-288.5 975.073,-288.5 975.073,-288.5 981.073,-288.5 987.073,-294.5 987.073,-300.5 987.073,-300.5 987.073,-390.5 987.073,-390.5 987.073,-396.5 981.073,-402.5 975.073,-402.5 975.073,-402.5 858.303,-402.5 858.303,-402.5 852.303,-402.5 846.303,-396.5 846.303,-390.5 846.303,-390.5 846.303,-300.5 846.303,-300.5 846.303,-294.5 852.303,-288.5 858.303,-288.5"/>
<text text-anchor="middle" x="916.688" y="-387.3" font-family="Times,serif" font-size="14.00">Participation</text>
<polyline fill="none" stroke="black" points="846.303,-380.5 987.073,-380.5 "/>
<text text-anchor="start" x="854.303" y="-365.3" font-family="Times,serif" font-size="14.00">id :INTEGER</text>
<text text-anchor="start" x="854.303" y="-351.3" font-family="Times,serif" font-size="14.00">character_id :integer</text>
<text text-anchor="start" x="854.303" y="-337.3" font-family="Times,serif" font-size="14.00">event_id :integer</text>
<text text-anchor="start" x="854.303" y="-323.3" font-family="Times,serif" font-size="14.00">experience_id :integer</text>
<text text-anchor="start" x="854.303" y="-309.3" font-family="Times,serif" font-size="14.00">created_at :datetime</text>
<text text-anchor="start" x="854.303" y="-295.3" font-family="Times,serif" font-size="14.00">updated_at :datetime</text>
</g>
<!-- Character&#45;&gt;Participation -->
<g id="edge7" class="edge"><title>Character&#45;&gt;Participation</title>
<path fill="none" stroke="#0bed88" d="M916.688,-596.267C916.688,-533.081 916.688,-462.577 916.688,-412.633"/>
<ellipse fill="none" stroke="#0bed88" cx="916.688" cy="-600.46" rx="4" ry="4"/>
<polygon fill="#0bed88" stroke="#0bed88" points="916.688,-412.612 921.188,-402.612 916.688,-407.612 916.688,-402.612 916.688,-402.612 916.688,-402.612 916.688,-407.612 912.188,-402.612 916.688,-412.612 916.688,-412.612"/>
</g>
<!-- Relationship -->
<g id="node15" class="node"><title>Relationship</title>
<path fill="none" stroke="black" d="M751.182,-453.5C751.182,-453.5 860.193,-453.5 860.193,-453.5 866.193,-453.5 872.193,-459.5 872.193,-465.5 872.193,-465.5 872.193,-541.5 872.193,-541.5 872.193,-547.5 866.193,-553.5 860.193,-553.5 860.193,-553.5 751.182,-553.5 751.182,-553.5 745.182,-553.5 739.182,-547.5 739.182,-541.5 739.182,-541.5 739.182,-465.5 739.182,-465.5 739.182,-459.5 745.182,-453.5 751.182,-453.5"/>
<text text-anchor="middle" x="805.688" y="-538.3" font-family="Times,serif" font-size="14.00">Relationship</text>
<polyline fill="none" stroke="black" points="739.182,-531.5 872.193,-531.5 "/>
<text text-anchor="start" x="747.182" y="-516.3" font-family="Times,serif" font-size="14.00">id :INTEGER</text>
<text text-anchor="start" x="747.182" y="-502.3" font-family="Times,serif" font-size="14.00">type :varchar(255)</text>
<text text-anchor="start" x="747.182" y="-488.3" font-family="Times,serif" font-size="14.00">intensity :integer</text>
<text text-anchor="start" x="747.182" y="-474.3" font-family="Times,serif" font-size="14.00">created_at :datetime</text>
<text text-anchor="start" x="747.182" y="-460.3" font-family="Times,serif" font-size="14.00">updated_at :datetime</text>
</g>
<!-- Character&#45;&gt;Relationship -->
<g id="edge6" class="edge"><title>Character&#45;&gt;Relationship</title>
<path fill="none" stroke="#fd02de" d="M847.522,-594.952C842.359,-583.79 837.365,-572.991 832.733,-562.977"/>
<polygon fill="#fd02de" stroke="#fd02de" points="847.6,-595.12 847.713,-606.086 849.699,-599.658 851.797,-604.197 851.797,-604.197 851.797,-604.197 849.699,-599.658 855.882,-602.308 847.6,-595.12 847.6,-595.12"/>
<polygon fill="#fd02de" stroke="#fd02de" points="832.608,-562.705 832.494,-551.74 830.509,-558.167 828.41,-553.629 828.41,-553.629 828.41,-553.629 830.509,-558.167 824.325,-555.518 832.608,-562.705 832.608,-562.705"/>
</g>
<!-- Comment -->
<g id="node7" class="node"><title>Comment</title>
<path fill="none" stroke="black" d="M639.182,-1137.5C639.182,-1137.5 748.193,-1137.5 748.193,-1137.5 754.193,-1137.5 760.193,-1143.5 760.193,-1149.5 760.193,-1149.5 760.193,-1225.5 760.193,-1225.5 760.193,-1231.5 754.193,-1237.5 748.193,-1237.5 748.193,-1237.5 639.182,-1237.5 639.182,-1237.5 633.182,-1237.5 627.182,-1231.5 627.182,-1225.5 627.182,-1225.5 627.182,-1149.5 627.182,-1149.5 627.182,-1143.5 633.182,-1137.5 639.182,-1137.5"/>
<text text-anchor="middle" x="693.688" y="-1222.3" font-family="Times,serif" font-size="14.00">Comment</text>
<polyline fill="none" stroke="black" points="627.182,-1215.5 760.193,-1215.5 "/>
<text text-anchor="start" x="635.182" y="-1200.3" font-family="Times,serif" font-size="14.00">id :INTEGER</text>
<text text-anchor="start" x="635.182" y="-1186.3" font-family="Times,serif" font-size="14.00">title :varchar(255)</text>
<text text-anchor="start" x="635.182" y="-1172.3" font-family="Times,serif" font-size="14.00">comment :text</text>
<text text-anchor="start" x="635.182" y="-1158.3" font-family="Times,serif" font-size="14.00">created_at :datetime</text>
<text text-anchor="start" x="635.182" y="-1144.3" font-family="Times,serif" font-size="14.00">updated_at :datetime</text>
</g>
<!-- Day -->
<g id="node8" class="node"><title>Day</title>
<path fill="none" stroke="black" d="M1365.19,-688.5C1365.19,-688.5 1502.19,-688.5 1502.19,-688.5 1508.19,-688.5 1514.19,-694.5 1514.19,-700.5 1514.19,-700.5 1514.19,-790.5 1514.19,-790.5 1514.19,-796.5 1508.19,-802.5 1502.19,-802.5 1502.19,-802.5 1365.19,-802.5 1365.19,-802.5 1359.19,-802.5 1353.19,-796.5 1353.19,-790.5 1353.19,-790.5 1353.19,-700.5 1353.19,-700.5 1353.19,-694.5 1359.19,-688.5 1365.19,-688.5"/>
<text text-anchor="middle" x="1433.69" y="-787.3" font-family="Times,serif" font-size="14.00">Day</text>
<polyline fill="none" stroke="black" points="1353.19,-780.5 1514.19,-780.5 "/>
<text text-anchor="start" x="1361.19" y="-765.3" font-family="Times,serif" font-size="14.00">id :INTEGER</text>
<text text-anchor="start" x="1361.19" y="-751.3" font-family="Times,serif" font-size="14.00">date :date</text>
<text text-anchor="start" x="1361.19" y="-737.3" font-family="Times,serif" font-size="14.00">created_at :datetime</text>
<text text-anchor="start" x="1361.19" y="-723.3" font-family="Times,serif" font-size="14.00">updated_at :datetime</text>
<text text-anchor="start" x="1361.19" y="-709.3" font-family="Times,serif" font-size="14.00">univers_id :integer</text>
<text text-anchor="start" x="1361.19" y="-695.3" font-family="Times,serif" font-size="14.00">human_day :varchar(255)</text>
</g>
<!-- Day&#45;&gt;Event -->
<g id="edge11" class="edge"><title>Day&#45;&gt;Event</title>
<path fill="none" stroke="#220eaf" d="M1405.06,-680.889C1390.66,-648.875 1373.13,-609.93 1358.22,-576.786"/>
<ellipse fill="none" stroke="#220eaf" cx="1406.73" cy="-684.583" rx="4.00002" ry="4.00002"/>
<polygon fill="#220eaf" stroke="#220eaf" points="1358.19,-576.722 1358.19,-565.756 1356.14,-572.162 1354.08,-567.603 1354.08,-567.603 1354.08,-567.603 1356.14,-572.162 1349.98,-569.449 1358.19,-576.722 1358.19,-576.722"/>
</g>
<!-- Event&#45;&gt;Participation -->
<g id="edge13" class="edge"><title>Event&#45;&gt;Participation</title>
<path fill="none" stroke="#f80083" d="M1251.48,-474.194C1179.63,-446.791 1071.02,-405.366 997.137,-377.185"/>
<ellipse fill="none" stroke="#f80083" cx="1255.33" cy="-475.663" rx="4.00001" ry="4.00001"/>
<polygon fill="#f80083" stroke="#f80083" points="996.745,-377.035 989.005,-369.267 992.073,-375.253 987.401,-373.471 987.401,-373.471 987.401,-373.471 992.073,-375.253 985.798,-377.676 996.745,-377.035 996.745,-377.035"/>
</g>
<!-- Scene -->
<g id="node16" class="node"><title>Scene</title>
<path fill="none" stroke="black" d="M1571.18,-309.5C1571.18,-309.5 1680.19,-309.5 1680.19,-309.5 1686.19,-309.5 1692.19,-315.5 1692.19,-321.5 1692.19,-321.5 1692.19,-369.5 1692.19,-369.5 1692.19,-375.5 1686.19,-381.5 1680.19,-381.5 1680.19,-381.5 1571.18,-381.5 1571.18,-381.5 1565.18,-381.5 1559.18,-375.5 1559.18,-369.5 1559.18,-369.5 1559.18,-321.5 1559.18,-321.5 1559.18,-315.5 1565.18,-309.5 1571.18,-309.5"/>
<text text-anchor="middle" x="1625.69" y="-366.3" font-family="Times,serif" font-size="14.00">Scene</text>
<polyline fill="none" stroke="black" points="1559.18,-359.5 1692.19,-359.5 "/>
<text text-anchor="start" x="1567.18" y="-344.3" font-family="Times,serif" font-size="14.00">id :INTEGER</text>
<text text-anchor="start" x="1567.18" y="-330.3" font-family="Times,serif" font-size="14.00">created_at :datetime</text>
<text text-anchor="start" x="1567.18" y="-316.3" font-family="Times,serif" font-size="14.00">updated_at :datetime</text>
</g>
<!-- Event&#45;&gt;Scene -->
<g id="edge14" class="edge"><title>Event&#45;&gt;Scene</title>
<path fill="none" stroke="#e9d743" d="M1401.17,-463.25C1446.71,-439.569 1504.53,-409.5 1550.09,-385.809"/>
<polygon fill="#e9d743" stroke="#e9d743" points="1401.14,-463.265 1390.19,-463.886 1396.7,-465.572 1392.27,-467.879 1392.27,-467.879 1392.27,-467.879 1396.7,-465.572 1394.34,-471.871 1401.14,-463.265 1401.14,-463.265"/>
<polygon fill="#e9d743" stroke="#e9d743" points="1550.16,-385.773 1561.11,-385.152 1554.6,-383.466 1559.04,-381.159 1559.04,-381.159 1559.04,-381.159 1554.6,-383.466 1556.96,-377.167 1550.16,-385.773 1550.16,-385.773"/>
</g>
<!-- Experience -->
<g id="node10" class="node"><title>Experience</title>
<path fill="none" stroke="black" d="M866.238,-1144.5C866.238,-1144.5 993.138,-1144.5 993.138,-1144.5 999.138,-1144.5 1005.14,-1150.5 1005.14,-1156.5 1005.14,-1156.5 1005.14,-1218.5 1005.14,-1218.5 1005.14,-1224.5 999.138,-1230.5 993.138,-1230.5 993.138,-1230.5 866.238,-1230.5 866.238,-1230.5 860.238,-1230.5 854.238,-1224.5 854.238,-1218.5 854.238,-1218.5 854.238,-1156.5 854.238,-1156.5 854.238,-1150.5 860.238,-1144.5 866.238,-1144.5"/>
<text text-anchor="middle" x="929.688" y="-1215.3" font-family="Times,serif" font-size="14.00">Experience</text>
<polyline fill="none" stroke="black" points="854.238,-1208.5 1005.14,-1208.5 "/>
<text text-anchor="start" x="862.238" y="-1193.3" font-family="Times,serif" font-size="14.00">id :INTEGER</text>
<text text-anchor="start" x="862.238" y="-1179.3" font-family="Times,serif" font-size="14.00">participation_id :integer</text>
<text text-anchor="start" x="862.238" y="-1165.3" font-family="Times,serif" font-size="14.00">created_at :datetime</text>
<text text-anchor="start" x="862.238" y="-1151.3" font-family="Times,serif" font-size="14.00">updated_at :datetime</text>
</g>
<!-- Page -->
<g id="node12" class="node"><title>Page</title>
<path fill="none" stroke="black" d="M1073.18,-1151.5C1073.18,-1151.5 1182.19,-1151.5 1182.19,-1151.5 1188.19,-1151.5 1194.19,-1157.5 1194.19,-1163.5 1194.19,-1163.5 1194.19,-1211.5 1194.19,-1211.5 1194.19,-1217.5 1188.19,-1223.5 1182.19,-1223.5 1182.19,-1223.5 1073.18,-1223.5 1073.18,-1223.5 1067.18,-1223.5 1061.18,-1217.5 1061.18,-1211.5 1061.18,-1211.5 1061.18,-1163.5 1061.18,-1163.5 1061.18,-1157.5 1067.18,-1151.5 1073.18,-1151.5"/>
<text text-anchor="middle" x="1127.69" y="-1208.3" font-family="Times,serif" font-size="14.00">Page</text>
<polyline fill="none" stroke="black" points="1061.18,-1201.5 1194.19,-1201.5 "/>
<text text-anchor="start" x="1069.18" y="-1186.3" font-family="Times,serif" font-size="14.00">id :INTEGER</text>
<text text-anchor="start" x="1069.18" y="-1172.3" font-family="Times,serif" font-size="14.00">created_at :datetime</text>
<text text-anchor="start" x="1069.18" y="-1158.3" font-family="Times,serif" font-size="14.00">updated_at :datetime</text>
</g>
<!-- Place -->
<g id="node14" class="node"><title>Place</title>
<path fill="none" stroke="black" d="M1544.57,-660.5C1544.57,-660.5 1680.81,-660.5 1680.81,-660.5 1686.81,-660.5 1692.81,-666.5 1692.81,-672.5 1692.81,-672.5 1692.81,-818.5 1692.81,-818.5 1692.81,-824.5 1686.81,-830.5 1680.81,-830.5 1680.81,-830.5 1544.57,-830.5 1544.57,-830.5 1538.57,-830.5 1532.57,-824.5 1532.57,-818.5 1532.57,-818.5 1532.57,-672.5 1532.57,-672.5 1532.57,-666.5 1538.57,-660.5 1544.57,-660.5"/>
<text text-anchor="middle" x="1612.69" y="-815.3" font-family="Times,serif" font-size="14.00">Place</text>
<polyline fill="none" stroke="black" points="1532.57,-808.5 1692.81,-808.5 "/>
<text text-anchor="start" x="1540.57" y="-793.3" font-family="Times,serif" font-size="14.00">id :INTEGER</text>
<text text-anchor="start" x="1540.57" y="-779.3" font-family="Times,serif" font-size="14.00">name :varchar(255)</text>
<text text-anchor="start" x="1540.57" y="-765.3" font-family="Times,serif" font-size="14.00">latitude :float</text>
<text text-anchor="start" x="1540.57" y="-751.3" font-family="Times,serif" font-size="14.00">longitude :float</text>
<text text-anchor="start" x="1540.57" y="-737.3" font-family="Times,serif" font-size="14.00">created_at :datetime</text>
<text text-anchor="start" x="1540.57" y="-723.3" font-family="Times,serif" font-size="14.00">updated_at :datetime</text>
<text text-anchor="start" x="1540.57" y="-709.3" font-family="Times,serif" font-size="14.00">univers_id :integer</text>
<text text-anchor="start" x="1540.57" y="-695.3" font-family="Times,serif" font-size="14.00">country :varchar(255)</text>
<text text-anchor="start" x="1540.57" y="-681.3" font-family="Times,serif" font-size="14.00">subdivision :varchar(255)</text>
<text text-anchor="start" x="1540.57" y="-667.3" font-family="Times,serif" font-size="14.00">city :varchar(255)</text>
</g>
<!-- Place&#45;&gt;Event -->
<g id="edge20" class="edge"><title>Place&#45;&gt;Event</title>
<path fill="none" stroke="#6ef202" d="M1564.45,-653.36C1552.38,-635.604 1538.35,-618.138 1522.69,-604 1487.67,-572.384 1440.76,-548.163 1401.51,-531.538"/>
<ellipse fill="none" stroke="#6ef202" cx="1566.93" cy="-657.106" rx="4.00002" ry="4.00002"/>
<polygon fill="#6ef202" stroke="#6ef202" points="1401.46,-531.518 1393.95,-523.529 1396.84,-529.602 1392.22,-527.686 1392.22,-527.686 1392.22,-527.686 1396.84,-529.602 1390.5,-531.842 1401.46,-531.518 1401.46,-531.518"/>
</g>
<!-- SceneOrder -->
<g id="node17" class="node"><title>SceneOrder</title>
<path fill="none" stroke="black" d="M1666.18,-0.5C1666.18,-0.5 1775.19,-0.5 1775.19,-0.5 1781.19,-0.5 1787.19,-6.5 1787.19,-12.5 1787.19,-12.5 1787.19,-102.5 1787.19,-102.5 1787.19,-108.5 1781.19,-114.5 1775.19,-114.5 1775.19,-114.5 1666.18,-114.5 1666.18,-114.5 1660.18,-114.5 1654.18,-108.5 1654.18,-102.5 1654.18,-102.5 1654.18,-12.5 1654.18,-12.5 1654.18,-6.5 1660.18,-0.5 1666.18,-0.5"/>
<text text-anchor="middle" x="1720.69" y="-99.3" font-family="Times,serif" font-size="14.00">SceneOrder</text>
<polyline fill="none" stroke="black" points="1654.18,-92.5 1787.19,-92.5 "/>
<text text-anchor="start" x="1662.18" y="-77.3" font-family="Times,serif" font-size="14.00">id :INTEGER</text>
<text text-anchor="start" x="1662.18" y="-63.3" font-family="Times,serif" font-size="14.00">order_value :integer</text>
<text text-anchor="start" x="1662.18" y="-49.3" font-family="Times,serif" font-size="14.00">story_id :integer</text>
<text text-anchor="start" x="1662.18" y="-35.3" font-family="Times,serif" font-size="14.00">scene_id :integer</text>
<text text-anchor="start" x="1662.18" y="-21.3" font-family="Times,serif" font-size="14.00">created_at :datetime</text>
<text text-anchor="start" x="1662.18" y="-7.3" font-family="Times,serif" font-size="14.00">updated_at :datetime</text>
</g>
<!-- Scene&#45;&gt;SceneOrder -->
<g id="edge23" class="edge"><title>Scene&#45;&gt;SceneOrder</title>
<path fill="none" stroke="#c7841a" d="M1622.9,-301.442C1621.88,-261.045 1624.5,-199.721 1644.69,-151 1648.7,-141.324 1654.07,-131.873 1660.12,-122.933"/>
<ellipse fill="none" stroke="#c7841a" cx="1623.03" cy="-305.485" rx="4" ry="4"/>
<polygon fill="#c7841a" stroke="#c7841a" points="1660.31,-122.674 1669.77,-117.138 1663.21,-118.601 1666.11,-114.528 1666.11,-114.528 1666.11,-114.528 1663.21,-118.601 1662.44,-111.918 1660.31,-122.674 1660.31,-122.674"/>
</g>
<!-- Story -->
<g id="node19" class="node"><title>Story</title>
<path fill="none" stroke="black" d="M1666.18,-151.5C1666.18,-151.5 1775.19,-151.5 1775.19,-151.5 1781.19,-151.5 1787.19,-157.5 1787.19,-163.5 1787.19,-163.5 1787.19,-239.5 1787.19,-239.5 1787.19,-245.5 1781.19,-251.5 1775.19,-251.5 1775.19,-251.5 1666.18,-251.5 1666.18,-251.5 1660.18,-251.5 1654.18,-245.5 1654.18,-239.5 1654.18,-239.5 1654.18,-163.5 1654.18,-163.5 1654.18,-157.5 1660.18,-151.5 1666.18,-151.5"/>
<text text-anchor="middle" x="1720.69" y="-236.3" font-family="Times,serif" font-size="14.00">Story</text>
<polyline fill="none" stroke="black" points="1654.18,-229.5 1787.19,-229.5 "/>
<text text-anchor="start" x="1662.18" y="-214.3" font-family="Times,serif" font-size="14.00">id :INTEGER</text>
<text text-anchor="start" x="1662.18" y="-200.3" font-family="Times,serif" font-size="14.00">name :varchar(255)</text>
<text text-anchor="start" x="1662.18" y="-186.3" font-family="Times,serif" font-size="14.00">created_at :datetime</text>
<text text-anchor="start" x="1662.18" y="-172.3" font-family="Times,serif" font-size="14.00">updated_at :datetime</text>
<text text-anchor="start" x="1662.18" y="-158.3" font-family="Times,serif" font-size="14.00">univers_id :integer</text>
</g>
<!-- Scene&#45;&gt;Story -->
<g id="edge24" class="edge"><title>Scene&#45;&gt;Story</title>
<path fill="none" stroke="#f1721f" d="M1654.81,-300.975C1663.45,-288.061 1673.04,-273.715 1682.18,-260.057"/>
<polygon fill="#f1721f" stroke="#f1721f" points="1654.73,-301.087 1645.43,-306.897 1651.95,-305.243 1649.17,-309.399 1649.17,-309.399 1649.17,-309.399 1651.95,-305.243 1652.91,-311.901 1654.73,-301.087 1654.73,-301.087"/>
<polygon fill="#f1721f" stroke="#f1721f" points="1682.24,-259.972 1691.54,-254.163 1685.02,-255.816 1687.8,-251.66 1687.8,-251.66 1687.8,-251.66 1685.02,-255.816 1684.06,-249.158 1682.24,-259.972 1682.24,-259.972"/>
</g>
<!-- Society -->
<g id="node18" class="node"><title>Society</title>
<path fill="none" stroke="black" d="M506.182,-937.5C506.182,-937.5 615.193,-937.5 615.193,-937.5 621.193,-937.5 627.193,-943.5 627.193,-949.5 627.193,-949.5 627.193,-1011.5 627.193,-1011.5 627.193,-1017.5 621.193,-1023.5 615.193,-1023.5 615.193,-1023.5 506.182,-1023.5 506.182,-1023.5 500.182,-1023.5 494.182,-1017.5 494.182,-1011.5 494.182,-1011.5 494.182,-949.5 494.182,-949.5 494.182,-943.5 500.182,-937.5 506.182,-937.5"/>
<text text-anchor="middle" x="560.688" y="-1008.3" font-family="Times,serif" font-size="14.00">Society</text>
<polyline fill="none" stroke="black" points="494.182,-1001.5 627.193,-1001.5 "/>
<text text-anchor="start" x="502.182" y="-986.3" font-family="Times,serif" font-size="14.00">id :INTEGER</text>
<text text-anchor="start" x="502.182" y="-972.3" font-family="Times,serif" font-size="14.00">name :varchar(255)</text>
<text text-anchor="start" x="502.182" y="-958.3" font-family="Times,serif" font-size="14.00">created_at :datetime</text>
<text text-anchor="start" x="502.182" y="-944.3" font-family="Times,serif" font-size="14.00">updated_at :datetime</text>
</g>
<!-- Society&#45;&gt;Membership -->
<g id="edge27" class="edge"><title>Society&#45;&gt;Membership</title>
<path fill="none" stroke="#a5268c" d="M560.688,-929.335C560.688,-841.026 560.688,-658.243 560.688,-563.826"/>
<ellipse fill="none" stroke="#a5268c" cx="560.688" cy="-933.347" rx="4" ry="4"/>
<polygon fill="#a5268c" stroke="#a5268c" points="560.688,-563.589 565.188,-553.589 560.688,-558.589 560.688,-553.589 560.688,-553.589 560.688,-553.589 560.688,-558.589 556.188,-553.589 560.688,-563.589 560.688,-563.589"/>
</g>
<!-- Story&#45;&gt;SceneOrder -->
<g id="edge29" class="edge"><title>Story&#45;&gt;SceneOrder</title>
<path fill="none" stroke="#92893c" d="M1720.69,-143.168C1720.69,-137.214 1720.69,-131.127 1720.69,-125.084"/>
<ellipse fill="none" stroke="#92893c" cx="1720.69" cy="-147.234" rx="4" ry="4"/>
<polygon fill="#92893c" stroke="#92893c" points="1720.69,-124.984 1725.19,-114.984 1720.69,-119.984 1720.69,-114.984 1720.69,-114.984 1720.69,-114.984 1720.69,-119.984 1716.19,-114.984 1720.69,-124.984 1720.69,-124.984"/>
</g>
<!-- Univers -->
<g id="node20" class="node"><title>Univers</title>
<path fill="none" stroke="black" d="M1361.18,-923.5C1361.18,-923.5 1470.19,-923.5 1470.19,-923.5 1476.19,-923.5 1482.19,-929.5 1482.19,-935.5 1482.19,-935.5 1482.19,-1025.5 1482.19,-1025.5 1482.19,-1031.5 1476.19,-1037.5 1470.19,-1037.5 1470.19,-1037.5 1361.18,-1037.5 1361.18,-1037.5 1355.18,-1037.5 1349.18,-1031.5 1349.18,-1025.5 1349.18,-1025.5 1349.18,-935.5 1349.18,-935.5 1349.18,-929.5 1355.18,-923.5 1361.18,-923.5"/>
<text text-anchor="middle" x="1415.69" y="-1022.3" font-family="Times,serif" font-size="14.00">Univers</text>
<polyline fill="none" stroke="black" points="1349.18,-1015.5 1482.19,-1015.5 "/>
<text text-anchor="start" x="1357.18" y="-1000.3" font-family="Times,serif" font-size="14.00">id :INTEGER</text>
<text text-anchor="start" x="1357.18" y="-986.3" font-family="Times,serif" font-size="14.00">created_at :datetime</text>
<text text-anchor="start" x="1357.18" y="-972.3" font-family="Times,serif" font-size="14.00">updated_at :datetime</text>
<text text-anchor="start" x="1357.18" y="-958.3" font-family="Times,serif" font-size="14.00">name :varchar(255)</text>
<text text-anchor="start" x="1357.18" y="-944.3" font-family="Times,serif" font-size="14.00">user_id :integer</text>
<text text-anchor="start" x="1357.18" y="-930.3" font-family="Times,serif" font-size="14.00">primary :boolean</text>
</g>
<!-- Univers&#45;&gt;Chapter -->
<g id="edge35" class="edge"><title>Univers&#45;&gt;Chapter</title>
<path fill="none" stroke="#581e8d" d="M1343.19,-920.528C1332.03,-909.936 1321.11,-898.568 1311.69,-887 1291.33,-862.002 1272.98,-831.259 1258.91,-804.911"/>
<ellipse fill="none" stroke="#581e8d" cx="1346.12" cy="-923.263" rx="4.00002" ry="4.00002"/>
<polygon fill="#581e8d" stroke="#581e8d" points="1258.77,-804.643 1258.1,-793.697 1256.45,-800.217 1254.12,-795.791 1254.12,-795.791 1254.12,-795.791 1256.45,-800.217 1250.14,-797.884 1258.77,-804.643 1258.77,-804.643"/>
</g>
<!-- Univers&#45;&gt;Character -->
<g id="edge33" class="edge"><title>Univers&#45;&gt;Character</title>
<path fill="none" stroke="#0f4665" d="M1341.44,-957.403C1288.37,-940.599 1215.82,-915.551 1154.69,-887 1110.95,-866.57 1064.82,-840.496 1024.95,-816.369"/>
<ellipse fill="none" stroke="#0f4665" cx="1345.31" cy="-958.621" rx="4.00001" ry="4.00001"/>
<polygon fill="#0f4665" stroke="#0f4665" points="1024.82,-816.29 1018.61,-807.249 1020.54,-813.692 1016.27,-811.093 1016.27,-811.093 1016.27,-811.093 1020.54,-813.692 1013.93,-814.938 1024.82,-816.29 1024.82,-816.29"/>
</g>
<!-- Univers&#45;&gt;Day -->
<g id="edge36" class="edge"><title>Univers&#45;&gt;Day</title>
<path fill="none" stroke="#425c2b" d="M1420.67,-915.066C1423.13,-883.205 1426.09,-844.804 1428.57,-812.706"/>
<ellipse fill="none" stroke="#425c2b" cx="1420.33" cy="-919.406" rx="4" ry="4"/>
<polygon fill="#425c2b" stroke="#425c2b" points="1428.59,-812.493 1433.85,-802.869 1428.97,-807.508 1429.36,-802.522 1429.36,-802.522 1429.36,-802.522 1428.97,-807.508 1424.87,-802.176 1428.59,-812.493 1428.59,-812.493"/>
</g>
<!-- Univers&#45;&gt;Event -->
<g id="edge32" class="edge"><title>Univers&#45;&gt;Event</title>
<path fill="none" stroke="#5e78da" d="M1359.71,-916.52C1353.7,-907.127 1348.42,-897.168 1344.69,-887 1307.16,-784.868 1309.85,-657.002 1316.67,-578.041"/>
<ellipse fill="none" stroke="#5e78da" cx="1361.98" cy="-919.927" rx="4.00002" ry="4.00002"/>
<polygon fill="#5e78da" stroke="#5e78da" points="1316.7,-577.667 1322.09,-568.116 1317.16,-572.687 1317.61,-567.708 1317.61,-567.708 1317.61,-567.708 1317.16,-572.687 1313.13,-567.3 1316.7,-577.667 1316.7,-577.667"/>
</g>
<!-- Univers&#45;&gt;Place -->
<g id="edge34" class="edge"><title>Univers&#45;&gt;Place</title>
<path fill="none" stroke="#44e29e" d="M1488.68,-921.431C1500.62,-910.551 1512.42,-898.854 1522.69,-887 1535.37,-872.363 1547.56,-855.791 1558.66,-839.291"/>
<ellipse fill="none" stroke="#44e29e" cx="1485.41" cy="-924.369" rx="4.00002" ry="4.00002"/>
<polygon fill="#44e29e" stroke="#44e29e" points="1558.84,-839.018 1568.11,-833.164 1561.6,-834.849 1564.36,-830.68 1564.36,-830.68 1564.36,-830.68 1561.6,-834.849 1560.61,-828.196 1558.84,-839.018 1558.84,-839.018"/>
</g>
<!-- Univers&#45;&gt;Story -->
<g id="edge31" class="edge"><title>Univers&#45;&gt;Story</title>
<path fill="none" stroke="#8c1aa2" d="M1490.29,-978.001C1557.46,-972.231 1652.91,-952.121 1701.69,-887 1774.68,-789.549 1743.03,-409.82 1727.46,-261.922"/>
<ellipse fill="none" stroke="#8c1aa2" cx="1486.23" cy="-978.321" rx="4" ry="4"/>
<polygon fill="#8c1aa2" stroke="#8c1aa2" points="1727.43,-261.625 1730.84,-251.204 1726.9,-256.653 1726.37,-251.681 1726.37,-251.681 1726.37,-251.681 1726.9,-256.653 1721.9,-252.158 1727.43,-261.625 1727.43,-261.625"/>
</g>
<!-- User -->
<g id="node21" class="node"><title>User</title>
<path fill="none" stroke="black" d="M1300.64,-1074.5C1300.64,-1074.5 1496.73,-1074.5 1496.73,-1074.5 1502.73,-1074.5 1508.73,-1080.5 1508.73,-1086.5 1508.73,-1086.5 1508.73,-1288.5 1508.73,-1288.5 1508.73,-1294.5 1502.73,-1300.5 1496.73,-1300.5 1496.73,-1300.5 1300.64,-1300.5 1300.64,-1300.5 1294.64,-1300.5 1288.64,-1294.5 1288.64,-1288.5 1288.64,-1288.5 1288.64,-1086.5 1288.64,-1086.5 1288.64,-1080.5 1294.64,-1074.5 1300.64,-1074.5"/>
<text text-anchor="middle" x="1398.69" y="-1285.3" font-family="Times,serif" font-size="14.00">User</text>
<polyline fill="none" stroke="black" points="1288.64,-1278.5 1508.73,-1278.5 "/>
<text text-anchor="start" x="1296.64" y="-1263.3" font-family="Times,serif" font-size="14.00">id :INTEGER</text>
<text text-anchor="start" x="1296.64" y="-1249.3" font-family="Times,serif" font-size="14.00">email :varchar(255)</text>
<text text-anchor="start" x="1296.64" y="-1235.3" font-family="Times,serif" font-size="14.00">encrypted_password :varchar(255)</text>
<text text-anchor="start" x="1296.64" y="-1221.3" font-family="Times,serif" font-size="14.00">reset_password_token :varchar(255)</text>
<text text-anchor="start" x="1296.64" y="-1207.3" font-family="Times,serif" font-size="14.00">reset_password_sent_at :datetime</text>
<text text-anchor="start" x="1296.64" y="-1193.3" font-family="Times,serif" font-size="14.00">remember_created_at :datetime</text>
<text text-anchor="start" x="1296.64" y="-1179.3" font-family="Times,serif" font-size="14.00">sign_in_count :integer</text>
<text text-anchor="start" x="1296.64" y="-1165.3" font-family="Times,serif" font-size="14.00">current_sign_in_at :datetime</text>
<text text-anchor="start" x="1296.64" y="-1151.3" font-family="Times,serif" font-size="14.00">last_sign_in_at :datetime</text>
<text text-anchor="start" x="1296.64" y="-1137.3" font-family="Times,serif" font-size="14.00">current_sign_in_ip :varchar(255)</text>
<text text-anchor="start" x="1296.64" y="-1123.3" font-family="Times,serif" font-size="14.00">last_sign_in_ip :varchar(255)</text>
<text text-anchor="start" x="1296.64" y="-1109.3" font-family="Times,serif" font-size="14.00">created_at :datetime</text>
<text text-anchor="start" x="1296.64" y="-1095.3" font-family="Times,serif" font-size="14.00">updated_at :datetime</text>
<text text-anchor="start" x="1296.64" y="-1081.3" font-family="Times,serif" font-size="14.00">username :varchar(255)</text>
</g>
<!-- User&#45;&gt;Univers -->
<g id="edge38" class="edge"><title>User&#45;&gt;Univers</title>
<path fill="none" stroke="#669540" d="M1408.65,-1066.39C1409.18,-1060.03 1409.7,-1053.75 1410.2,-1047.68"/>
<ellipse fill="none" stroke="#669540" cx="1408.31" cy="-1070.42" rx="4" ry="4"/>
<polygon fill="#669540" stroke="#669540" points="1410.2,-1047.62 1415.52,-1038.02 1410.62,-1042.64 1411.03,-1037.65 1411.03,-1037.65 1411.03,-1037.65 1410.62,-1042.64 1406.55,-1037.28 1410.2,-1047.62 1410.2,-1047.62"/>
</g>
<!-- Object -->
<g id="node22" class="node"><title>Object</title>
<ellipse fill="none" stroke="black" cx="258.688" cy="-1373.5" rx="33.8596" ry="18"/>
<text text-anchor="middle" x="258.688" y="-1369.3" font-family="Times,serif" font-size="14.00">Object</text>
</g>
<!-- Object&#45;&gt;Ability -->
<g id="edge1" class="edge"><title>Object&#45;&gt;Ability</title>
<path fill="none" stroke="black" d="M258.688,-1355.19C258.688,-1321.28 258.688,-1246.24 258.688,-1209.54"/>
</g>
<!-- ActiveRecord::Base -->
<g id="node23" class="node"><title>ActiveRecord::Base</title>
<ellipse fill="none" stroke="black" cx="1127.69" cy="-1373.5" rx="81.1422" ry="18"/>
<text text-anchor="middle" x="1127.69" y="-1369.3" font-family="Times,serif" font-size="14.00">ActiveRecord::Base</text>
</g>
<!-- ActiveRecord::Base&#45;&gt;Artefact -->
<g id="edge2" class="edge"><title>ActiveRecord::Base&#45;&gt;Artefact</title>
<path fill="none" stroke="black" d="M1046.58,-1372.08C889.592,-1369.96 550.939,-1358.63 451.688,-1301 424.111,-1284.99 403.381,-1255.41 389.799,-1230.6"/>
</g>
<!-- ActiveRecord::Base&#45;&gt;Calendar -->
<g id="edge4" class="edge"><title>ActiveRecord::Base&#45;&gt;Calendar</title>
<path fill="none" stroke="black" d="M1101.64,-1356.35C1083.91,-1343.73 1061.89,-1324.42 1051.69,-1301 1011.51,-1208.84 1027.22,-1087.02 1039.82,-1023.74"/>
</g>
<!-- ActiveRecord::Base&#45;&gt;Chapter -->
<g id="edge5" class="edge"><title>ActiveRecord::Base&#45;&gt;Chapter</title>
<path fill="none" stroke="black" d="M1167.72,-1357.82C1192.43,-1346.43 1222.12,-1327.98 1236.69,-1301 1283.29,-1214.7 1251.91,-914.522 1237.16,-795.583"/>
</g>
<!-- ActiveRecord::Base&#45;&gt;Character -->
<g id="edge9" class="edge"><title>ActiveRecord::Base&#45;&gt;Character</title>
<path fill="none" stroke="black" d="M1057.18,-1364.47C982.362,-1354.33 871.431,-1334.09 845.688,-1301 796.927,-1238.33 839.504,-1029.25 876.579,-886.514"/>
</g>
<!-- ActiveRecord::Base&#45;&gt;Comment -->
<g id="edge10" class="edge"><title>ActiveRecord::Base&#45;&gt;Comment</title>
<path fill="none" stroke="black" d="M1057.45,-1364.42C968.309,-1353.13 820.587,-1330.63 774.688,-1301 750.728,-1285.53 731.594,-1260.28 717.952,-1237.61"/>
</g>
<!-- ActiveRecord::Base&#45;&gt;Day -->
<g id="edge12" class="edge"><title>ActiveRecord::Base&#45;&gt;Day</title>
<path fill="none" stroke="black" d="M1208.17,-1370.86C1318.89,-1366.71 1509.44,-1352.13 1552.69,-1301 1617.84,-1223.97 1570.18,-1173.36 1552.69,-1074 1535.25,-974.951 1490.27,-866.43 1460.88,-802.513"/>
</g>
<!-- ActiveRecord::Base&#45;&gt;Event -->
<g id="edge15" class="edge"><title>ActiveRecord::Base&#45;&gt;Event</title>
<path fill="none" stroke="black" d="M1153.78,-1356.37C1171.53,-1343.76 1193.55,-1324.45 1203.69,-1301 1243.71,-1208.39 1216.58,-1174.06 1203.69,-1074 1176.85,-865.701 1049.99,-786.061 1154.69,-604 1177.03,-565.144 1221.03,-540.047 1258.8,-524.778"/>
</g>
<!-- ActiveRecord::Base&#45;&gt;Experience -->
<g id="edge16" class="edge"><title>ActiveRecord::Base&#45;&gt;Experience</title>
<path fill="none" stroke="black" d="M1098.11,-1356.6C1075.09,-1343.42 1043.07,-1323.3 1018.69,-1301 995.904,-1280.15 974.311,-1253.11 958.101,-1230.76"/>
</g>
<!-- ActiveRecord::Base&#45;&gt;Membership -->
<g id="edge17" class="edge"><title>ActiveRecord::Base&#45;&gt;Membership</title>
<path fill="none" stroke="black" d="M1049.62,-1368.29C896.36,-1359.28 567.724,-1336.09 530.688,-1301 444.547,-1219.39 494.948,-1156.22 484.688,-1038 469.115,-858.578 519.935,-647.331 546.105,-553.572"/>
</g>
<!-- ActiveRecord::Base&#45;&gt;Page -->
<g id="edge18" class="edge"><title>ActiveRecord::Base&#45;&gt;Page</title>
<path fill="none" stroke="black" d="M1127.69,-1355.19C1127.69,-1325.22 1127.69,-1263.11 1127.69,-1223.74"/>
</g>
<!-- ActiveRecord::Base&#45;&gt;Participation -->
<g id="edge19" class="edge"><title>ActiveRecord::Base&#45;&gt;Participation</title>
<path fill="none" stroke="black" d="M1046.12,-1373.46C916.423,-1373.05 672.212,-1363.7 617.688,-1301 551.486,-1224.87 593.431,-1171.93 617.688,-1074 622.038,-1056.44 631,-1055.17 636.688,-1038 721.391,-782.25 570.371,-656.258 729.688,-439 757.639,-400.883 805.687,-377.59 846.079,-363.913"/>
</g>
<!-- ActiveRecord::Base&#45;&gt;Place -->
<g id="edge21" class="edge"><title>ActiveRecord::Base&#45;&gt;Place</title>
<path fill="none" stroke="black" d="M1208.69,-1371.58C1326.13,-1368.37 1534.99,-1355.01 1583.69,-1301 1699.73,-1172.31 1667.11,-950.966 1637.39,-830.525"/>
</g>
<!-- ActiveRecord::Base&#45;&gt;Relationship -->
<g id="edge22" class="edge"><title>ActiveRecord::Base&#45;&gt;Relationship</title>
<path fill="none" stroke="black" d="M1054.49,-1365.61C973.304,-1356.29 849.874,-1336.6 820.688,-1301 773.449,-1243.38 795.112,-718.35 803.148,-553.671"/>
</g>
<!-- ActiveRecord::Base&#45;&gt;Scene -->
<g id="edge25" class="edge"><title>ActiveRecord::Base&#45;&gt;Scene</title>
<path fill="none" stroke="black" d="M1208.36,-1371.02C1335.31,-1367.11 1573.92,-1352.87 1638.69,-1301 1757.08,-1206.18 1758.69,-1133.19 1758.69,-981.5 1758.69,-981.5 1758.69,-981.5 1758.69,-744.5 1758.69,-604.075 1683.29,-449.483 1646.03,-381.665"/>
</g>
<!-- ActiveRecord::Base&#45;&gt;SceneOrder -->
<g id="edge26" class="edge"><title>ActiveRecord::Base&#45;&gt;SceneOrder</title>
<path fill="none" stroke="black" d="M1206.54,-1368.86C1368.9,-1360.63 1728.82,-1338.36 1769.69,-1301 1876.65,-1203.24 1834.69,-1126.41 1834.69,-981.5 1834.69,-981.5 1834.69,-981.5 1834.69,-344.5 1834.69,-256.857 1834.09,-230.263 1796.69,-151 1790.75,-138.406 1782.71,-126.068 1774.08,-114.715"/>
</g>
<!-- ActiveRecord::Base&#45;&gt;Society -->
<g id="edge28" class="edge"><title>ActiveRecord::Base&#45;&gt;Society</title>
<path fill="none" stroke="black" d="M1050.67,-1367.68C908.45,-1358.02 616.188,-1334.31 584.688,-1301 513.699,-1225.92 533.092,-1091.59 549.081,-1023.51"/>
</g>
<!-- ActiveRecord::Base&#45;&gt;Story -->
<g id="edge30" class="edge"><title>ActiveRecord::Base&#45;&gt;Story</title>
<path fill="none" stroke="black" d="M1209.12,-1373.44C1351.93,-1373.37 1639.36,-1365.01 1712.69,-1301 1823.3,-1204.44 1796.69,-1128.33 1796.69,-981.5 1796.69,-981.5 1796.69,-981.5 1796.69,-502.5 1796.69,-411.833 1763.66,-310.342 1741.15,-251.694"/>
</g>
<!-- ActiveRecord::Base&#45;&gt;Univers -->
<g id="edge37" class="edge"><title>ActiveRecord::Base&#45;&gt;Univers</title>
<path fill="none" stroke="black" d="M1207.22,-1369.53C1309.6,-1363.83 1478.96,-1347.47 1517.69,-1301 1582.28,-1223.5 1558.56,-1166.24 1517.69,-1074 1509.79,-1056.19 1496.59,-1040.34 1482.25,-1027.01"/>
</g>
<!-- ActiveRecord::Base&#45;&gt;User -->
<g id="edge39" class="edge"><title>ActiveRecord::Base&#45;&gt;User</title>
<path fill="none" stroke="black" d="M1165.84,-1357.5C1196.5,-1344.62 1240.02,-1324.45 1274.69,-1301 1279.26,-1297.91 1283.84,-1294.65 1288.4,-1291.28"/>
</g>
</g>
</svg>
